<svg xmlns="http://www.w3.org/2000/svg" viewBox="0 0 512 360">
  <g fill="none" stroke="#000" stroke-width="5" stroke-miterlimit="10">
    <path d="M506,5.9c0-0.7-0.6-1.3-1.3-1.3h-95L276.4,228.4l-72.9,126.9h108.6c0,0,37.5-64.7,62.2-108.5c22.2-39.3,35.5-51.1,35.5,0v107.3c0,0.7,0.6,1.3,1.3,1.3h93.7c0.7,0,1.3-0.6,1.3-1.3V5.9z"/>
    <path d="M6,5.9c0-0.7,0.6-1.3,1.3-1.3h95l133.3,223.7l72.9,126.9H199.9c0,0-37.5-64.7-62.2-108.5c-22.2-39.3-35.5-51.1-35.5,0v107.3c0,0.7-0.6,1.3-1.3,1.3H7.3c-0.7,0-1.3-0.6-1.3-1.3V5.9z"/>
    <path d="M102.2,4.7h75.1c0,0,105.9,0,105.9,121.4c0,120.6-105.9,120.8-105.9,120.8h-75.1V4.7z"/>
  </g>
</svg>
