<?xml version="1.0" standalone="no"?>
<!DOCTYPE svg PUBLIC "-//W3C//DTD SVG 20010904//EN"
 "http://www.w3.org/TR/2001/REC-SVG-20010904/DTD/svg10.dtd">
<svg version="1.0" xmlns="http://www.w3.org/2000/svg"
 width="1024.000000pt" height="1024.000000pt" viewBox="0 0 1024.000000 1024.000000"
 preserveAspectRatio="xMidYMid meet">
<metadata>
Created by potrace 1.11, written by Peter Selinger 2001-2013
</metadata>
<g transform="translate(0.000000,1024.000000) scale(0.100000,-0.100000)"
fill="#000000" stroke="none">
<path d="M890 8112 c-16 -6 -14 -5982 3 -5983 6 -1 374 -2 815 -3 529 -1 806
2 810 9 4 5 7 422 7 925 l0 915 301 1 302 2 55 -97 c30 -53 64 -113 75 -133
12 -20 32 -55 46 -77 15 -22 26 -44 26 -47 0 -4 18 -35 40 -70 22 -35 40 -65
40 -68 0 -4 601 -1053 640 -1116 14 -21 68 -117 98 -170 14 -25 30 -52 36 -60
10 -14 117 -16 938 -15 509 0 928 2 930 5 4 5 32 52 75 130 11 19 55 96 98
170 43 74 145 252 228 395 82 143 157 274 167 290 79 138 329 577 424 745 42
74 80 142 85 150 6 8 27 44 47 80 55 99 197 309 249 368 122 138 205 129 249
-25 14 -46 17 -69 32 -193 4 -30 7 -515 8 -1078 1 -757 4 -1025 13 -1030 9 -5
1593 -9 1626 -3 4 0 7 1346 7 2990 0 2838 -1 2989 -17 2993 -10 2 -380 4 -823
3 l-805 0 -96 -160 c-84 -139 -337 -564 -712 -1195 -61 -102 -144 -241 -185
-310 -42 -69 -82 -136 -89 -150 -8 -14 -22 -37 -31 -52 -14 -21 -77 -128 -147
-246 -5 -9 -64 -107 -129 -217 -66 -110 -189 -317 -274 -460 -85 -143 -162
-271 -171 -285 -8 -14 -21 -35 -28 -48 -7 -12 -19 -32 -26 -45 -7 -12 -20 -33
-29 -47 -41 -65 -399 -672 -528 -897 -80 -139 -148 -253 -151 -253 -3 0 -13
15 -22 33 -9 17 -21 39 -27 47 -17 26 -152 262 -216 377 -15 27 -33 55 -41 65
-13 14 -9 19 34 49 26 18 50 35 53 38 3 3 27 24 55 46 300 241 533 651 609
1070 38 208 49 325 49 545 2 532 -96 926 -317 1280 -117 188 -297 370 -491
500 -168 111 -469 237 -634 265 -19 3 -37 8 -41 10 -4 2 -35 9 -71 14 -35 5
-84 13 -109 17 -44 7 -3039 13 -3060 6z"/>
</g>
</svg>
