<svg xmlns="http://www.w3.org/2000/svg" viewBox="0 0 512 512">
  <g fill="none" stroke="#fff" stroke-width="5" stroke-miterlimit="10">
    <path d="M470 107.4c0-.6-.5-1.1-1.1-1.1h-81.1l-113.9 191-62.3 108.4h92.7s32-55.2 53.1-92.7c18.9-33.5 30.3-43.6 30.3 0v91.6c0 .6.5 1.1 1.1 1.1h80c.6 0 1.1-.5 1.1-1.1V107.4z"/>
    <path d="M43 107.4c0-.6.5-1.1 1.1-1.1h81.1l113.9 191 62.3 108.4h-92.7s-32-55.2-53.1-92.7c-18.9-33.5-30.3-43.6-30.3 0v91.6c0 .6-.5 1.1-1.1 1.1h-80c-.6 0-1.1-.5-1.1-1.1V107.4z"/>
    <path d="M125.2 106.3h64.1s90.4 0 90.4 103.7c0 103-90.4 103.1-90.4 103.1h-64.1V106.3z"/>
  </g>
</svg>
