<?xml version="1.0" encoding="utf-8"?>
<!-- Generator: Adobe Illustrator 18.0.0, SVG Export Plug-In . SVG Version: 6.00 Build 0)  -->
<!DOCTYPE svg PUBLIC "-//W3C//DTD SVG 1.1//EN" "http://www.w3.org/Graphics/SVG/1.1/DTD/svg11.dtd">
<svg version="1.1" id="Layer_1" xmlns="http://www.w3.org/2000/svg" xmlns:xlink="http://www.w3.org/1999/xlink" x="0px" y="0px"
	 width="512px" height="512px" viewBox="0 0 512 512" enable-background="new 0 0 512 512" xml:space="preserve">
<g>
	<g>
		<path fill="#FFFFFF" d="M290.4,432.4L181.3,263.7V128.1c0-5.9-4.8-10.7-10.7-10.7h-53.4c-5.9,0-10.7,4.8-10.7,10.7V264L7,433.2
			c-4.8,8.1-7.3,17.3-7.3,26.7c0,29.1,23.6,52.6,52.6,52.6h194.4c10,0,19.8-2.9,28.2-8.3C299.1,488.7,306,456.5,290.4,432.4z
			 M246.8,491.2H52.4c-5.6,0-11.1-1.5-15.9-4.3c-14.9-8.8-19.9-27.9-11.1-42.8l101-171.7c1-1.6,1.5-3.5,1.5-5.4V138.8h32v128.1
			c0,2.1,0.6,4.1,1.7,5.8L272.4,444c3.2,4.9,4.9,10.7,4.9,16.6C277.4,477.5,263.7,491.2,246.8,491.2z"/>
	</g>
</g>
<g>
	<g>
		<path fill="#FFFFFF" d="M153.5,310.4l-18.4-10.8L44.5,453.7c-1,1.6-1.5,3.5-1.5,5.4c0,5.9,4.8,10.7,10.7,10.7h74.2v-21.4H72.3
			L153.5,310.4z"/>
	</g>
</g>
<g>
	<g>
		<path fill="#FFFFFF" d="M486.5,245.6H320.1c-23.6,0-42.7,19.1-42.7,42.7v170.8c0,29.5,23.9,53.4,53.4,53.4h96.1
			c29.5,0,53.4-23.9,53.4-53.4V314.1l24.5-24.5c4.8-4.8,7.5-11.4,7.5-18.2C512.3,257.1,500.7,245.6,486.5,245.6z M489.6,274.5
			L462,302.1c-2,2-3.1,4.7-3.1,7.5v149.5c0,17.7-14.3,32-32,32h-96.1c-17.7,0-32-14.3-32-32V288.3c0-11.8,9.6-21.4,21.4-21.4h166.4
			c1.2,0,2.3,0.5,3.1,1.3C491.3,270,491.3,272.8,489.6,274.5z"/>
	</g>
</g>
<g>
	<g>
		<path fill="#FFFFFF" d="M416.2,309.7v138.8h-32v21.4h42.7c5.9,0,10.7-4.8,10.7-10.7V309.7H416.2z"/>
	</g>
</g>
<g>
	<g>
		<path fill="#FFFFFF" d="M298.7,154.7v-144C298.7,4.8,293.9,0,288,0h-74.7c-5.9,0-10.7,4.8-10.7,10.7v147c-13,4-25.6,9.5-37.4,16.3
			l10.7,18.5c12.5-7.2,26-12.8,40-16.4c4.7-1.2,8-5.5,8-10.3V21.4h53.4v141.9c0,5.1,3.6,9.5,8.7,10.5c37.4,7.2,71.1,27.4,95,57.2
			l16.6-13.4C372.5,186.2,337.7,164.1,298.7,154.7z"/>
	</g>
</g>
<g>
	<g>
		<path fill="#FFFFFF" d="M453.5,149.5c-20.6,0-37.4,16.7-37.4,37.4c0,20.6,16.7,37.4,37.4,37.4c20.6,0,37.4-16.7,37.4-37.4
			C490.9,166.2,474.2,149.5,453.5,149.5z M453.5,202.9c-8.8,0-16-7.2-16-16s7.2-16,16-16c8.8,0,16,7.2,16,16
			S462.4,202.9,453.5,202.9z"/>
	</g>
</g>
<g>
	<g>
		<path fill="#FFFFFF" d="M416.2,74.7c-17.7,0-32,14.3-32,32s14.3,32,32,32s32-14.3,32-32C448.2,89.1,433.9,74.7,416.2,74.7z
			 M416.2,117.5c-5.9,0-10.7-4.8-10.7-10.7c0-5.9,4.8-10.7,10.7-10.7c5.9,0,10.7,4.8,10.7,10.7C426.8,112.7,422.1,117.5,416.2,117.5
			z"/>
	</g>
</g>
<g>
	<g>
		<path fill="#FFFFFF" d="M37.1,85.4c-20.6,0-37.4,16.7-37.4,37.4c0,20.6,16.7,37.4,37.4,37.4s37.4-16.7,37.4-37.4
			C74.5,102.2,57.7,85.4,37.1,85.4z M37.1,138.8c-8.8,0-16-7.2-16-16s7.2-16,16-16s16,7.2,16,16S46,138.8,37.1,138.8z"/>
	</g>
</g>
<g>
	<g>
		<path fill="#FFFFFF" d="M85.2,10.7c-17.7,0-32,14.3-32,32s14.3,32,32,32s32-14.3,32-32S102.9,10.7,85.2,10.7z M85.2,53.4
			c-5.9,0-10.7-4.8-10.7-10.7c0-5.9,4.8-10.7,10.7-10.7s10.7,4.8,10.7,10.7S91.1,53.4,85.2,53.4z"/>
	</g>
</g>
<g>
	<g>
		<rect x="320.1" y="309.7" fill="#FFFFFF" width="32" height="21.4"/>
	</g>
</g>
<g>
	<g>
		<rect x="320.1" y="352.4" fill="#FFFFFF" width="21.4" height="21.4"/>
	</g>
</g>
<g>
	<g>
		<rect x="320.1" y="395.1" fill="#FFFFFF" width="32" height="21.4"/>
	</g>
</g>
<g>
	<g>
		<rect x="320.1" y="437.8" fill="#FFFFFF" width="21.4" height="21.4"/>
	</g>
</g>
<g>
	<g>
		<rect x="21.1" y="192.2" fill="#FFFFFF" width="21.4" height="21.4"/>
	</g>
</g>
<g>
	<g>
		<rect x="53.1" y="245.6" fill="#FFFFFF" width="21.4" height="21.4"/>
	</g>
</g>
<g>
	<g>
		<rect x="234.6" y="288.3" fill="#FFFFFF" width="21.4" height="21.4"/>
	</g>
</g>
<g>
	<g>
		<rect x="213.3" y="245.6" fill="#FFFFFF" width="21.4" height="21.4"/>
	</g>
</g>
<g>
	<g>
		<rect x="202.6" y="202.9" fill="#FFFFFF" width="21.4" height="21.4"/>
	</g>
</g>
<g>
	<g>
		<rect x="213.3" y="437.8" fill="#FFFFFF" width="21.4" height="21.4"/>
	</g>
</g>
<g>
	<g>
		<rect x="181.3" y="395.1" fill="#FFFFFF" width="21.4" height="21.4"/>
	</g>
</g>
</svg>
