<?xml version="1.0" encoding="utf-8"?>
<!-- Generator: Adobe Illustrator 18.0.0, SVG Export Plug-In . SVG Version: 6.00 Build 0)  -->
<!DOCTYPE svg PUBLIC "-//W3C//DTD SVG 1.1//EN" "http://www.w3.org/Graphics/SVG/1.1/DTD/svg11.dtd">
<svg version="1.1" id="Layer_1" xmlns="http://www.w3.org/2000/svg" xmlns:xlink="http://www.w3.org/1999/xlink" x="0px" y="0px"
	 width="512px" height="512px" viewBox="0 0 512 512" enable-background="new 0 0 512 512" xml:space="preserve">
<path fill="#FFFFFF" d="M413.3,281.8l-23.6,23.6c1.1,1,2.2,1.5,3.2,2.5c15,15,27.3,28.6,37.9,41.2l3.7-3.7
	c4.6-4.6,5.7-11.6,2.8-17.3C435,323.5,427,306.6,413.3,281.8z"/>
<path fill="#FFFFFF" d="M305.5,389.6l-24.7,24.7c25.9,14.4,38.2,20.2,45.9,24.2c5.8,3,12.9,1.9,17.5-2.7l5-5
	c-12.5-10.6-26.1-23-41.1-38C307,391.7,306.4,390.6,305.5,389.6z"/>
<path fill="#FFFFFF" d="M316,315.9c-10.3,10.3-2.5,39.9,13.2,55.6c48.5,48.5,82,70,101.6,79.5c5.8,2.8,12.6,1.6,17.2-2.9
	c4.5-4.5,5.7-11.4,2.9-17.1c-9.7-20.1-31.4-54-79.3-101.9C357.3,314.8,326.8,305.1,316,315.9L316,315.9z"/>
<path fill="#FFFFFF" d="M374.3,167.2c22,28.7,42.8,60.4,62.1,94.7c13.6-3.5,33.8-0.9,56.7,5.3c6.6,1.8,13.6-1.2,16.9-7
	c3.4-5.9,2.4-13.3-2.4-18.1l-42.4-42.4C429.1,163.6,387.1,159.1,374.3,167.2z"/>
<path fill="#FFFFFF" d="M266.2,494.8c-4.9-33.4-6.3-44.9-4.2-56.7c-30.3-17.1-62.8-37.5-94.8-61.6c-7.5,13.4-1.7,55.8,31.2,88.7
	l42.4,42.4c4.6,4.6,11.6,5.7,17.3,2.8C263.8,507.5,267.2,501.3,266.2,494.8z"/>
<path fill="#FFFFFF" d="M150.6,150.5c-17.5,17.5-17.5,46.1,0,63.6s46.1,17.5,63.6,0c17.5-17.5,17.5-46.1,0-63.6
	C196.7,132.9,168.1,132.9,150.6,150.5z"/>
<path fill="#FFFFFF" d="M12.2,124.1c25.2-2.4,52.6-15.2,74.7-37.2c21.8-21.8,34.6-48.6,37.3-73.3C88.3,2.6,51.6-2,14.7,0.8
	C7.3,1.4,1.4,7.2,0.9,14.6C-2.1,53.8,2.5,90.1,12.2,124.1z"/>
<path fill="#FFFFFF" d="M22,153.2c43.2,110.2,144.7,192.9,231.9,245.5l35-35c-9.4-23.1-11.9-51.2,5.9-69c17.8-17.8,45.9-15.3,69-5.9
	l33.9-33.9C329.5,141.6,243.3,60.9,153.2,24c-4.9,29.1-20.1,59.1-45.1,84C82.8,133.4,51.9,148.7,22,153.2z M129.3,129.3
	c29.2-29.2,76.8-29.2,106.1,0s29.2,76.8,0,106.1c-29.2,29.2-76.8,29.2-106.1,0C100.1,206.1,100.1,158.5,129.3,129.3z"/>
</svg>
